<svg width="146" height="54" viewBox="0 0 146 54" fill="none" xmlns="http://www.w3.org/2000/svg">
<g id="logo 1">
<g id="Group">
<path id="Vector" d="M24.1035 49.1839C24.3441 49.383 24.4631 49.9061 24.4631 50.7499C24.4631 51.5413 24.3441 52.0628 24.1035 52.3125C23.8656 52.5589 23.5871 52.6855 23.2653 52.6855L2.27649 52.6112C1.63571 52.6112 1.32208 52.4374 1.32208 52.0881V1.61664C1.32208 1.17114 1.67897 0.948395 2.39275 0.948395H23.0301C23.4249 0.948395 23.7466 1.12221 23.9845 1.46983C24.2252 1.81577 24.3441 2.23764 24.3441 2.73377C24.3441 3.17927 24.2441 3.61633 24.0467 4.03652C23.8412 4.46008 23.5465 4.66933 23.1491 4.66933H9.31423C8.83568 4.66933 8.59775 4.81783 8.59775 5.11652V23.8748C8.59775 24.1735 8.79512 24.322 9.19256 24.322H21.8405C22.0757 24.322 22.3353 24.4333 22.6138 24.6561C22.8922 24.8805 23.0301 25.4155 23.0301 26.2575C23.0301 27.1013 22.8895 27.6345 22.6138 27.859C22.3326 28.0817 22.0325 28.1914 21.7188 28.1914H9.4359C8.87623 28.1914 8.59775 28.3888 8.59775 28.7888V48.3671C8.59775 48.7165 8.87623 48.8886 9.4359 48.8886H23.1464C23.5465 48.8869 23.8656 48.9848 24.1035 49.1839Z" fill="#1D1D1B"/>
<path id="Vector_2" d="M65.8487 1.46812C66.0055 1.81575 66.0866 2.26294 66.0866 2.808C66.0866 3.35475 65.9839 3.81206 65.7865 4.185C65.5864 4.55625 65.289 4.74356 64.8916 4.74356H53.9172C53.5198 4.74356 53.3224 4.89206 53.3224 5.19075V52.2349C53.3224 52.4846 52.8439 52.6837 51.8921 52.8322C50.935 52.9807 50.1807 53.055 49.6264 53.055C48.9911 53.055 48.2124 53.0196 47.3013 52.9453C46.3874 52.8694 45.9305 52.7074 45.9305 52.461V5.19075C45.9305 4.89206 45.6493 4.74356 45.0896 4.74356H34.237C33.2826 4.74356 32.8067 4.12256 32.8067 2.88225C32.8067 1.593 33.242 0.946686 34.1207 0.946686H64.7726C65.3296 0.946686 65.6837 1.1205 65.8487 1.46812Z" fill="#1D1D1B"/>
<path id="Vector_3" d="M106.28 1.46812C106.437 1.81575 106.518 2.26294 106.518 2.808C106.518 3.35475 106.418 3.81206 106.22 4.185C106.02 4.55625 105.723 4.74356 105.323 4.74356H94.3511C93.9537 4.74356 93.7563 4.89206 93.7563 5.19075V52.2349C93.7563 52.4846 93.2751 52.6837 92.3261 52.8322C91.3689 52.9807 90.6119 53.055 90.0577 53.055C89.4223 53.055 88.6463 53.0196 87.7325 52.9453C86.8186 52.8711 86.3617 52.7074 86.3617 52.461V5.19075C86.3617 4.89206 86.0805 4.74356 85.5235 4.74356H74.6709C73.7165 4.74356 73.2379 4.12256 73.2379 2.88225C73.2379 1.593 73.6732 0.946686 74.5519 0.946686H105.204C105.763 0.946686 106.118 1.1205 106.28 1.46812Z" fill="#1D1D1B"/>
<path id="Vector_4" d="M134.301 0.946686C137.724 0.946686 140.306 1.431 142.058 2.39794C143.805 3.36656 144.678 4.94269 144.678 7.12631V46.2814C144.678 48.5139 143.805 50.1407 142.058 51.1582C140.306 52.1775 137.721 52.6837 134.301 52.6837H126.55C123.132 52.6837 120.528 52.1977 118.739 51.2308C116.949 50.2622 116.056 48.6877 116.056 46.5041V7.34906C116.056 5.1165 116.949 3.49144 118.739 2.47219C120.528 1.45631 123.132 0.946686 126.55 0.946686H134.301ZM137.286 7.12631C137.286 6.43106 136.989 5.86069 136.391 5.4135C135.793 4.968 134.817 4.74356 133.468 4.74356H127.266C125.993 4.74356 125.038 5.01694 124.403 5.562C123.767 6.10875 123.451 6.77869 123.451 7.57181V46.5041C123.451 47.2011 123.767 47.7697 124.405 48.2186C125.038 48.6641 125.995 48.8869 127.269 48.8869H133.471C134.742 48.8869 135.696 48.6135 136.332 48.0701C136.967 47.5234 137.289 46.8534 137.289 46.0569L137.286 7.12631Z" fill="#1D1D1B"/>
</g>
</g>
</svg>
