<svg width="67" height="74" viewBox="0 0 67 74" fill="none" xmlns="http://www.w3.org/2000/svg">
<g id="&#240;&#159;&#166;&#134; icon &#34;share android&#34;">
<path id="Vector" d="M54.5 72C60.2992 72 65 67.2992 65 61.5C65 55.7009 60.2992 51 54.5 51C48.7009 51 44 55.7009 44 61.5C44 67.2992 48.7009 72 54.5 72Z" fill="#131313" stroke="black" stroke-width="3" stroke-linecap="round" stroke-linejoin="round"/>
<path id="Vector_2" d="M54.5 23C60.2992 23 65 18.299 65 12.5C65 6.70103 60.2992 2 54.5 2C48.7009 2 44 6.70103 44 12.5C44 18.299 48.7009 23 54.5 23Z" fill="#131313" stroke="black" stroke-width="3" stroke-linecap="round" stroke-linejoin="round"/>
<path id="Vector_3" d="M12.5 47.5C18.299 47.5 23 42.7992 23 37C23 31.2009 18.299 26.5 12.5 26.5C6.70103 26.5 2 31.2009 2 37C2 42.7992 6.70103 47.5 12.5 47.5Z" fill="#131313" stroke="black" stroke-width="3" stroke-linecap="round" stroke-linejoin="round"/>
<g id="Vector_4">
<path d="M45.75 17.75L21.25 31.75L45.75 17.75Z" fill="#131313"/>
<path d="M45.75 17.75L21.25 31.75" stroke="black" stroke-width="3"/>
</g>
<g id="Vector_5">
<path d="M21.25 42.25L45.75 56.25L21.25 42.25Z" fill="#131313"/>
<path d="M21.25 42.25L45.75 56.25" stroke="black" stroke-width="3"/>
</g>
</g>
</svg>
