<svg width="90" height="74" viewBox="0 0 90 74" fill="none" xmlns="http://www.w3.org/2000/svg">
<g id="&#240;&#159;&#166;&#134; icon &#34;twitter&#34;">
<path id="Vector" d="M87.8239 2.03924C87.8239 2.03924 79.9519 6.68976 75.5745 8.0079C73.2249 5.30644 70.1024 3.39171 66.6293 2.52266C63.1561 1.65366 59.5001 1.87224 56.1553 3.1489C52.8105 4.42557 49.9381 6.6987 47.9275 9.66083C45.9165 12.623 44.864 16.1312 44.9119 19.7112V23.6122C38.0562 23.79 31.2631 22.2695 25.1374 19.1862C19.0116 16.1029 13.7435 11.5525 9.80217 5.94033C9.80217 5.94033 -5.80217 41.0502 29.3076 56.6546C21.2734 62.1079 11.7026 64.8426 2 64.4568C37.1098 83.9622 80.0217 64.4568 80.0217 19.5941C80.0182 18.5075 79.9137 17.4235 79.7096 16.3562C83.6911 12.4297 87.8239 2.03924 87.8239 2.03924Z" fill="#2DCECE" stroke="black" stroke-width="3" stroke-linecap="round" stroke-linejoin="round"/>
</g>
</svg>
